<svg width="580" height="400" xmlns="http://www.w3.org/2000/svg">
 <!-- Created with Method Draw - http://github.com/duopixel/Method-Draw/ -->
 <g>
  <title>background</title>
  <rect fill="#fff" id="canvas_background" height="402" width="582" y="-1" x="-1"/>
  <g display="none" overflow="visible" y="0" x="0" height="100%" width="100%" id="canvasGrid">
   <rect fill="url(#gridpattern)" stroke-width="0" y="0" x="0" height="100%" width="100%"/>
  </g>
 </g>
 <g>
  <title>Layer 1</title>
  <path d="m284,286c-1,0 -5.080261,-2.862701 -12,-7c-8.097076,-4.841217 -22.271027,-14.540588 -31,-20c-10.349121,-6.472702 -18,-15 -22,-20c-4,-5 -5.359268,-10.051651 -6,-14c-0.506546,-3.121445 -2,-6 -2,-12c0,-5 0,-15 0,-24c0,-16 -1.529419,-30.807709 8,-47c15.624725,-26.549347 35.419525,-41.778969 58,-58c20.498077,-14.725105 34.372589,-22.713173 46,-26c7.75824,-2.193092 22.067444,-3.099648 31,-2c12.276642,1.511322 22.42041,12.550713 31,21c11.598602,11.42244 18.463226,24.461983 28,35c8.540497,9.437149 21.551208,20.942337 30,35c6.224365,10.356506 8.499481,22.965988 9,34c0.362518,7.991776 -1.142365,13.635025 -8,22c-5.379578,6.562027 -14.393341,14.574432 -22,22c-5.588806,5.45575 -13,9 -22,12c-9,3 -18.979248,5.09584 -28,7c-9.978149,2.106247 -19,2 -28,2c-9,0 -17.162384,-1.646347 -24,-5c-9.243652,-4.533737 -15.155334,-9.873886 -20,-16c-3.101471,-3.921844 -5.448395,-7.805649 -7,-12c-1.430481,-3.867004 -4.163818,-8.974991 -5,-15c-1.244812,-8.969421 -1,-15 -1,-19c0,-3 -0.765381,-4.152237 0,-6c1.623596,-3.919693 7.920288,-8.11351 15,-13c8.9021,-6.144318 15.119537,-10.771957 21,-14c5.11145,-2.805908 10.647491,-4.972519 15,-6c4.866241,-1.148758 12,0 17,0c6,0 12.02475,-0.060806 17,2c7.036072,2.914429 10,5 13,9c3,4 7.448395,7.805649 9,12c1.430481,3.867004 2.511261,8.029968 3,12c0.503784,4.092209 1.733093,9.044952 1,15c-0.503784,4.092209 -2.112152,7.918304 -5,12c-2.082458,2.943359 -4.21167,5.714127 -7,8c-2.187347,1.793198 -4,3 -6,4c-2,1 -7,3 -9,3c-2,0 -3,0 -3,0c-3,0 -8.041321,0.152771 -12,-1c-3.036163,-0.88414 -8,-3 -11,-5c-3,-2 -5.458801,-3.693436 -6,-5c-0.765381,-1.847763 0,-4 0,-5c0,-1 0,-2 0,-3c0,-1 0,-2 1,-4c2,-4 4.705475,-6.346191 7,-8c1.813995,-1.307449 3.007507,-0.877823 4,-1c4.092224,-0.503769 8,-1 14,-1c5,0 9,0 12,0c2,0 2.61731,0.076126 3,1c0.541199,1.306564 1,1 1,2c0,1 0.459503,2.053497 0,4c-0.513733,2.176254 -2,4 -3,5c-1,1 -3.486267,2.823746 -4,5c-0.229767,0.973251 -0.292908,1.292892 -1,2c-0.707092,0.707108 -1.693451,0.458801 -3,1c-0.923889,0.38269 -2,1 -3,1c-1,0 -1.292908,-0.292892 -2,-1c-0.707092,-0.707108 -2,0 -3,0c0,0 -0.186005,-0.692551 -2,-2c-1.147278,-0.826904 -2.458801,-1.693436 -3,-3c-0.38269,-0.923874 0,-2 0,-2c1,0 1,-1 1,-1l1,0l0,-1l0,-1" id="svg_1" stroke-width="1.5" stroke="#000" fill="none"/>
 </g>
</svg>